<svg width="20" height="19" viewBox="0 0 20 19" fill="none" xmlns="http://www.w3.org/2000/svg">
<path d="M10 13.7454C11.933 13.7454 13.5 12.1784 13.5 10.2454C13.5 8.31243 11.933 6.74542 10 6.74542C8.067 6.74542 6.5 8.31243 6.5 10.2454C6.5 12.1784 8.067 13.7454 10 13.7454Z" fill="#4285F4"/>
<path d="M18 6.22667V11.2454V14.2267C18 14.4379 17.9575 14.6379 17.8975 14.8292C17.7012 15.4442 17.2188 15.9267 16.6038 16.1229C16.4125 16.1842 16.2125 16.2254 16.0012 16.2254H6.25L8.25 18.2254H14.5H16C16.5525 18.2254 17.0788 18.1129 17.5575 17.9117C18.0363 17.7092 18.4675 17.4167 18.8288 17.0542C19.01 16.8729 19.1737 16.6754 19.3175 16.4617C19.605 16.0367 19.8125 15.5517 19.9188 15.0317C19.9725 14.7717 20 14.5017 20 14.2254V12.7254V9.24542V7.72667L19.25 5.35167L17.8975 5.62417C17.9575 5.81542 18 6.01542 18 6.22667Z" fill="#EA4335"/>
<path d="M2 6.22667C2 6.01542 2.0425 5.81542 2.1025 5.62417C2.29875 5.00917 2.78125 4.52667 3.39625 4.33042C3.58875 4.26917 3.78875 4.22667 4 4.22667H16C16.2113 4.22667 16.4113 4.26917 16.6025 4.32917L16.625 2.85167L14.5 2.22667L12.5 0.226669H10.82H10H9.18H7.5L5.5 2.22667H4C1.79125 2.22667 0 4.01792 0 6.22667V7.72667V10.2267L2 12.2267V6.22667Z" fill="#4285F4"/>
<path d="M16 2.22667H14.5L16.6038 4.33042C16.7575 4.37917 16.9025 4.44667 17.0375 4.52917C17.3075 4.69417 17.5337 4.92042 17.6987 5.19042C17.7812 5.32542 17.8487 5.47042 17.8975 5.62417L20 7.72667V6.22667C20 4.01792 18.2088 2.22667 16 2.22667Z" fill="#34A853"/>
<path d="M4 18.2267H8.98625L6.98625 16.2267H4C2.8975 16.2267 2 15.3292 2 14.2267V11.2404L0 9.24042V14.2267C0 16.4354 1.79125 18.2267 4 18.2267Z" fill="#FBBC04"/>
</svg>
