<svg width="48" height="48" viewBox="0 0 48 48" fill="none" xmlns="http://www.w3.org/2000/svg">
<path d="M0 24C0 10.7452 10.7452 0 24 0C37.2548 0 48 10.7452 48 24C48 37.2548 37.2548 48 24 48C10.7452 48 0 37.2548 0 24Z" fill="#5865F2"/>
<path d="M34.3963 14.8237C32.4842 13.9796 30.4337 13.3577 28.2899 13.0015C28.2508 12.9946 28.2118 13.0118 28.1917 13.0462C27.928 13.4974 27.6359 14.0861 27.4314 14.5488C25.1255 14.2167 22.8315 14.2167 20.5729 14.5488C20.3683 14.0758 20.0656 13.4974 19.8007 13.0462C19.7806 13.0129 19.7416 12.9958 19.7026 13.0015C17.5599 13.3565 15.5095 13.9784 13.5962 14.8237C13.5796 14.8306 13.5654 14.842 13.556 14.8569C9.66674 20.4471 8.60131 25.9 9.12398 31.2852C9.12634 31.3116 9.14171 31.3368 9.163 31.3528C11.729 33.1658 14.2146 34.2664 16.6541 34.996C16.6931 35.0075 16.7345 34.9937 16.7594 34.9628C17.3364 34.2046 17.8508 33.4052 18.2918 32.5645C18.3179 32.5153 18.293 32.4569 18.2398 32.4374C17.4239 32.1396 16.647 31.7765 15.8997 31.3642C15.8405 31.331 15.8358 31.2497 15.8902 31.2107C16.0475 31.0974 16.2048 30.9794 16.3549 30.8603C16.3821 30.8385 16.42 30.8339 16.4519 30.8477C21.3616 33.0043 26.6769 33.0043 31.5287 30.8477C31.5606 30.8328 31.5985 30.8374 31.6268 30.8591C31.7771 30.9783 31.9343 31.0974 32.0928 31.2107C32.1472 31.2497 32.1436 31.331 32.0845 31.3642C31.3372 31.7845 30.5602 32.1396 29.7431 32.4362C29.6899 32.4557 29.6663 32.5153 29.6923 32.5645C30.1428 33.404 30.6572 34.2034 31.2236 34.9616C31.2473 34.9937 31.2898 35.0075 31.3289 34.996C33.7802 34.2664 36.2658 33.1658 38.8318 31.3528C38.8543 31.3368 38.8685 31.3127 38.8708 31.2864C39.4964 25.0604 37.8231 19.6523 34.4353 14.858C34.427 14.842 34.4128 14.8306 34.3963 14.8237ZM19.025 28.0062C17.5469 28.0062 16.3289 26.7005 16.3289 25.0971C16.3289 23.4937 17.5233 22.188 19.025 22.188C20.5386 22.188 21.7448 23.5051 21.7211 25.0971C21.7211 26.7005 20.5268 28.0062 19.025 28.0062ZM28.9934 28.0062C27.5153 28.0062 26.2974 26.7005 26.2974 25.0971C26.2974 23.4937 27.4917 22.188 28.9934 22.188C30.507 22.188 31.7132 23.5051 31.6896 25.0971C31.6896 26.7005 30.507 28.0062 28.9934 28.0062Z" fill="white"/>
</svg>
