<svg width="48" height="48" viewBox="0 0 48 48" fill="none" xmlns="http://www.w3.org/2000/svg">
<path d="M0 24C0 10.7452 10.7452 0 24 0C37.2548 0 48 10.7452 48 24C48 37.2548 37.2548 48 24 48C10.7452 48 0 37.2548 0 24Z" fill="white"/>
<path fill-rule="evenodd" clip-rule="evenodd" d="M19.2675 17.4994C19.2675 18.6109 18.4309 19.5002 17.0875 19.5002H17.0629C15.7695 19.5002 14.9333 18.6109 14.9333 17.4994C14.9333 16.3645 15.795 15.5 17.1129 15.5C18.4309 15.5 19.2425 16.3645 19.2675 17.4994ZM19.0137 21.0802V32.6556H15.1611V21.0802H19.0137ZM32.9075 32.6555L32.9076 26.0186C32.9076 22.4631 31.007 20.8083 28.4719 20.8083C26.4264 20.8083 25.5106 21.9319 24.9993 22.72V21.0805H21.1462C21.197 22.1666 21.1462 32.6558 21.1462 32.6558H24.9993V26.1912C24.9993 25.8453 25.0243 25.5001 25.1261 25.2525C25.4046 24.5613 26.0385 23.8458 27.1029 23.8458C28.4975 23.8458 29.055 24.9072 29.055 26.4627V32.6555H32.9075Z" fill="white"/>
<path d="M7 24C7 14.6112 14.6112 7 24 7C33.3888 7 41 14.6112 41 24C41 33.3888 33.3888 41 24 41C14.6112 41 7 33.3888 7 24Z" fill="#3B5998"/>
<path d="M25.6359 35.3333V23.9986H28.5696L28.9584 20.0926H25.6359L25.6409 18.1377C25.6409 17.1189 25.7316 16.5731 27.1036 16.5731H28.9376V12.6666H26.0035C22.4791 12.6666 21.2386 14.5614 21.2386 17.7479V20.0931H19.0417V23.9991H21.2386V35.3333H25.6359Z" fill="white"/>
</svg>
