<svg width="48" height="48" viewBox="0 0 48 48" fill="none" xmlns="http://www.w3.org/2000/svg">
<path d="M0 24C0 10.7452 10.7452 0 24 0C37.2548 0 48 10.7452 48 24C48 37.2548 37.2548 48 24 48C10.7452 48 0 37.2548 0 24Z" fill="white"/>
<path d="M24 7.74451C20.0424 7.74467 16.2141 9.15303 13.1999 11.7176C10.1857 14.2821 8.18247 17.8355 7.54852 21.742C6.91457 25.6484 7.69133 29.653 9.7398 33.0391C11.7883 36.4252 14.9748 38.972 18.7292 40.2237C19.5625 40.3695 19.875 39.8695 19.875 39.432C19.875 39.0362 19.8541 37.7237 19.8541 36.3278C15.6666 37.0987 14.5833 35.3071 14.25 34.3696C13.8801 33.4578 13.2938 32.6498 12.5416 32.0153C11.9583 31.7028 11.125 30.932 12.5208 30.9112C13.0538 30.969 13.5649 31.1545 14.011 31.4519C14.4571 31.7492 14.8249 32.1498 15.0833 32.6195C15.3112 33.029 15.6178 33.3895 15.9853 33.6803C16.3528 33.9712 16.7741 34.1866 17.225 34.3143C17.6759 34.4421 18.1476 34.4796 18.6131 34.4247C19.0785 34.3698 19.5286 34.2236 19.9374 33.9945C20.0096 33.1472 20.3872 32.355 21 31.7654C17.2916 31.3487 13.4166 29.9112 13.4166 23.5362C13.3932 21.8798 14.0044 20.2772 15.125 19.0571C14.6154 17.6174 14.6751 16.0375 15.2916 14.6404C15.2916 14.6404 16.6874 14.2029 19.875 16.3487C22.6021 15.5987 25.4812 15.5987 28.2083 16.3487C31.3958 14.1821 32.7916 14.6404 32.7916 14.6404C33.4083 16.0375 33.4679 17.6174 32.9583 19.0571C34.0822 20.2751 34.694 21.8791 34.6666 23.5362C34.6666 29.932 30.7708 31.3487 27.0625 31.7654C27.4602 32.1685 27.7665 32.6525 27.9607 33.1846C28.1548 33.7166 28.2321 34.2842 28.1875 34.8487C28.1875 37.0779 28.1666 38.8695 28.1666 39.4321C28.1666 39.8696 28.4791 40.3904 29.3124 40.2237C33.0602 38.9618 36.2376 36.4091 38.2773 33.0213C40.3171 29.6334 41.0864 25.6309 40.4481 21.7282C39.8098 17.8256 37.8053 14.2768 34.7924 11.7154C31.7796 9.15392 27.9545 7.74657 24 7.74451Z" fill="black"/>
</svg>
