<svg width="272" height="86" viewBox="0 0 272 86" fill="none" xmlns="http://www.w3.org/2000/svg">
<path d="M34.0243 30.4104V39.5142H55.9943C55.411 44.5503 53.6612 48.4242 50.9393 50.9423C47.8285 54.0415 42.7734 57.528 34.0243 57.528C20.609 57.528 10.1101 46.681 10.1101 33.3159C10.1101 19.9508 20.4146 9.10376 34.0243 9.10376C41.218 9.10376 46.6619 12.0092 50.5504 15.6895L56.9664 9.29746C51.5225 4.06764 44.1344 0 34.0243 0C15.554 0 0 14.9147 0 33.3159C0 51.7171 15.554 66.6318 34.0243 66.6318C43.94 66.6318 51.5225 63.3389 57.3553 57.3343C63.3824 51.3297 65.3267 42.807 65.3267 36.0276C65.3267 33.897 65.1322 31.96 64.9378 30.4104H34.0243Z" fill="#4285F4"/>
<path d="M92.5461 22.8562C80.6862 22.8562 70.7706 31.96 70.7706 44.3566C70.7706 56.7532 80.4918 65.8569 92.5461 65.8569C104.6 65.8569 114.322 56.9469 114.322 44.5503C114.322 31.96 104.6 22.8562 92.5461 22.8562ZM92.5461 57.528C85.9357 57.528 80.2974 52.1044 80.2974 44.5503C80.2974 36.8024 85.9357 31.5726 92.5461 31.5726C99.1565 31.5726 104.795 36.8024 104.795 44.5503C104.795 52.1044 99.1565 57.528 92.5461 57.528Z" fill="#EA4335"/>
<path d="M198.896 27.6986H198.507C196.369 25.1806 192.286 22.8562 187.036 22.8562C176.149 22.8562 166.816 32.1537 166.816 44.3566C166.816 56.3658 176.149 65.8569 187.036 65.8569C192.286 65.8569 196.369 63.5326 198.507 61.0145H198.896V64.1137C198.896 72.2489 194.425 76.704 187.425 76.704C181.593 76.704 178.093 72.6363 176.538 68.9561L168.372 72.4426C170.705 78.0598 177.121 85.2266 187.62 85.2266C198.702 85.2266 208.229 78.6409 208.229 62.7578V24.0184H199.285V27.6986H198.896ZM188.009 57.528C181.398 57.528 176.538 51.9107 176.538 44.5503C176.538 36.9961 181.593 31.5726 188.009 31.5726C194.425 31.5726 199.48 37.1898 199.48 44.744C199.674 52.1044 194.619 57.528 188.009 57.528Z" fill="#4285F4"/>
<path d="M140.958 22.8562C129.098 22.8562 119.182 31.96 119.182 44.3566C119.182 56.7532 128.904 65.8569 140.958 65.8569C153.012 65.8569 162.733 56.9469 162.733 44.5503C162.733 31.96 153.012 22.8562 140.958 22.8562ZM140.958 57.528C134.347 57.528 128.709 52.1044 128.709 44.5503C128.709 36.8024 134.347 31.5726 140.958 31.5726C147.568 31.5726 153.207 36.8024 153.207 44.5503C153.207 52.1044 147.568 57.528 140.958 57.528Z" fill="#FBBC05"/>
<path d="M215.422 0.968506H224.755V66.0507H215.422V0.968506Z" fill="#34A853"/>
<path d="M253.53 57.528C248.669 57.528 245.364 55.3973 243.031 50.9423L272 39.1267L271.028 36.6087C269.278 31.7663 263.64 22.8562 252.558 22.8562C241.475 22.8562 232.143 31.5726 232.143 44.3566C232.143 56.3658 241.281 65.8569 253.53 65.8569C263.445 65.8569 269.084 59.8523 271.611 56.3658L264.223 51.5234C261.696 55.2036 258.39 57.528 253.53 57.528ZM252.946 30.9915C256.835 30.9915 260.14 32.9284 261.112 35.6402L241.67 43.7755C241.475 34.8654 248.086 30.9915 252.946 30.9915Z" fill="#EA4335"/>
</svg>
