<svg width="48" height="48" viewBox="0 0 48 48" fill="none" xmlns="http://www.w3.org/2000/svg">
<path d="M0 24C0 10.7452 10.7452 0 24 0C37.2548 0 48 10.7452 48 24C48 37.2548 37.2548 48 24 48C10.7452 48 0 37.2548 0 24Z" fill="white"/>
<g clip-path="url(#clip0_8_318)">
<path d="M37.9158 18.2279C37.8477 16.7377 37.611 15.72 37.2649 14.8296C36.9135 13.8954 36.3624 13.0493 35.6501 12.3499C34.951 11.6376 34.1046 11.0863 33.1704 10.7346C32.2798 10.3888 31.2623 10.1523 29.7721 10.0846C28.2791 10.0162 27.8021 10 24 10C20.1979 10 19.7209 10.0162 18.2279 10.0842C16.7377 10.1523 15.7202 10.389 14.8296 10.7351C13.8954 11.0865 13.0493 11.6376 12.3499 12.3499C11.6376 13.049 11.0863 13.8952 10.7346 14.8294C10.3888 15.72 10.1523 16.7377 10.0846 18.2277C10.0162 19.7209 10 20.1977 10 23.9998C10 27.8021 10.0162 28.2791 10.0846 29.7721C10.1525 31.2621 10.3892 32.2798 10.7353 33.1704C11.0867 34.1044 11.6378 34.9507 12.3501 35.6499C13.0493 36.3622 13.8956 36.9133 14.8298 37.2647C15.7202 37.611 16.7379 37.8475 18.2281 37.9156C19.7213 37.9838 20.1982 37.9998 24.0002 37.9998C27.8023 37.9998 28.2793 37.9838 29.7723 37.9156C31.2625 37.8475 32.28 37.611 33.1706 37.2647C35.0511 36.5375 36.5378 35.0509 37.2649 33.1704C37.6112 32.2798 37.8477 31.2621 37.9158 29.7721C37.9838 28.2789 38 27.8021 38 24C38 20.1977 37.9838 19.7209 37.9158 18.2279ZM35.3957 29.6574C35.3336 31.0224 35.1054 31.7637 34.9138 32.257C34.4427 33.478 33.4778 34.443 32.2567 34.914C31.7635 35.1056 31.0222 35.3338 29.6572 35.3959C28.1812 35.4634 27.7384 35.4775 24 35.4775C20.2614 35.4775 19.8188 35.4634 18.3426 35.3959C16.9778 35.3338 16.2365 35.1056 15.743 34.914C15.1351 34.6895 14.585 34.3317 14.1334 33.8666C13.6683 33.415 13.3105 32.8651 13.086 32.257C12.8944 31.7637 12.6662 31.0224 12.6041 29.6574C12.5368 28.1812 12.5225 27.7384 12.5225 24.0002C12.5225 20.2618 12.5368 19.8192 12.6041 18.3428C12.6664 16.9778 12.8944 16.2365 13.086 15.7433C13.3105 15.1351 13.6685 14.585 14.1334 14.1334C14.585 13.6683 15.1351 13.3105 15.7433 13.0862C16.2365 12.8944 16.9778 12.6664 18.3428 12.6041C19.819 12.5368 20.2618 12.5225 24 12.5225H23.9998C27.738 12.5225 28.1808 12.5368 29.6572 12.6043C31.0222 12.6664 31.7633 12.8946 32.2567 13.0862C32.8647 13.3107 33.4148 13.6685 33.8664 14.1334C34.3315 14.585 34.6893 15.1351 34.9136 15.7433C35.1054 16.2365 35.3336 16.9778 35.3957 18.3428C35.463 19.819 35.4773 20.2618 35.4773 24C35.4773 27.7384 35.4632 28.181 35.3957 29.6574Z" fill="url(#paint0_linear_8_318)"/>
<path d="M23.9998 16.8108C20.0294 16.8108 16.8107 20.0297 16.8107 24.0001C16.8107 27.9705 20.0294 31.1891 23.9998 31.1891C27.9704 31.1891 31.1891 27.9705 31.1891 24.0001C31.1891 20.0297 27.9704 16.8108 23.9998 16.8108ZM23.9998 28.6667C21.4226 28.6664 19.3332 26.5772 19.3334 23.9998C19.3334 21.4227 21.4226 19.3333 24 19.3333C26.5774 19.3335 28.6666 21.4227 28.6666 23.9998C28.6666 26.5772 26.5771 28.6667 23.9998 28.6667Z" fill="url(#paint1_linear_8_318)"/>
<path d="M33.1531 16.5268C33.1531 17.4546 32.4009 18.2068 31.4732 18.2068C30.5452 18.2068 29.793 17.4546 29.793 16.5268C29.793 15.5988 30.5452 14.8467 31.4732 14.8467C32.4009 14.8467 33.1531 15.5988 33.1531 16.5268Z" fill="url(#paint2_linear_8_318)"/>
</g>
<defs>
<linearGradient id="paint0_linear_8_318" x1="12.3497" y1="35.6501" x2="35.6503" y2="12.3495" gradientUnits="userSpaceOnUse">
<stop stop-color="#FFD600"/>
<stop offset="0.5" stop-color="#FF0100"/>
<stop offset="1" stop-color="#D800B9"/>
</linearGradient>
<linearGradient id="paint1_linear_8_318" x1="18.9164" y1="29.0835" x2="29.0834" y2="18.9165" gradientUnits="userSpaceOnUse">
<stop stop-color="#FF6400"/>
<stop offset="0.5" stop-color="#FF0100"/>
<stop offset="1" stop-color="#FD0056"/>
</linearGradient>
<linearGradient id="paint2_linear_8_318" x1="30.2852" y1="17.7146" x2="32.661" y2="15.3388" gradientUnits="userSpaceOnUse">
<stop stop-color="#F30072"/>
<stop offset="1" stop-color="#E50097"/>
</linearGradient>
<clipPath id="clip0_8_318">
<rect width="28" height="28" fill="white" transform="translate(10 10)"/>
</clipPath>
</defs>
</svg>
