<svg width="48" height="48" viewBox="0 0 48 48" fill="none" xmlns="http://www.w3.org/2000/svg">
<path d="M0 24C0 10.7452 10.7452 0 24 0C37.2548 0 48 10.7452 48 24C48 37.2548 37.2548 48 24 48C10.7452 48 0 37.2548 0 24Z" fill="white"/>
<g clip-path="url(#clip0_12_110)">
<path d="M34 26.355C34 25.613 33.436 25.009 32.74 25.009H22.676C21.98 25.009 21.416 25.613 21.416 26.355C21.416 27.097 21.979 27.701 22.676 27.701H32.74C33.436 27.702 34 27.098 34 26.355Z" fill="#B3B1B0"/>
<path d="M15.482 30.187L19.795 34.548C20.768 35.527 22.113 36 23.598 36C25.083 36 26.428 35.488 27.403 34.506L29.991 31.869C30.501 31.355 30.483 30.504 29.952 29.969C29.421 29.434 28.577 29.416 28.068 29.93L25.392 32.537C24.93 33.004 24.29 33.199 23.583 33.199C22.876 33.199 22.237 33.004 21.773 32.537L17.475 28.174C17.012 27.707 16.779 27.024 16.779 26.311C16.779 25.598 17.012 24.954 17.475 24.487L21.76 20.107C22.223 19.64 22.876 19.462 23.582 19.462C24.288 19.462 24.928 19.657 25.391 20.124L28.067 22.73C28.577 23.245 29.421 23.227 29.952 22.692C30.483 22.156 30.501 21.305 29.991 20.791L27.403 18.155C26.7451 17.4976 25.9166 17.0369 25.011 16.825L24.977 16.818L27.424 14.315C27.936 13.801 27.918 12.949 27.387 12.414C26.856 11.879 26.011 11.862 25.5 12.376L15.482 22.476C14.509 23.458 14 24.813 14 26.311C14 27.809 14.509 29.207 15.482 30.187Z" fill="#E7A41F"/>
<path d="M20.1151 34.814C19.9408 34.7167 19.7812 34.5952 19.6411 34.453C18.3141 33.12 16.9811 31.793 15.6571 30.456C13.6681 28.448 13.3551 25.519 14.8711 23.136C15.1133 22.7718 15.3947 22.4351 15.7101 22.132L25.3331 12.489C25.9581 11.863 26.8311 11.837 27.4121 12.422C27.9721 12.985 27.9391 13.877 27.3341 14.488C26.5651 15.264 25.7951 16.038 25.0251 16.813C24.9841 16.935 24.8851 17.013 24.8001 17.1C23.9371 17.976 23.0501 18.829 22.1991 19.718C22.0881 19.834 21.9371 19.904 21.8271 20.023C20.4041 21.446 18.9641 22.853 17.5611 24.295C16.4261 25.462 16.4641 27.233 17.6291 28.422C18.9371 29.758 20.2681 31.072 21.5901 32.396C21.6571 32.463 21.7261 32.528 21.7941 32.594C22.2621 32.897 22.2681 33.844 21.9771 34.265C21.6561 34.73 21.2371 35.015 20.6441 34.993C20.4451 34.987 20.2811 34.907 20.1151 34.814Z" fill="#070706"/>
</g>
<defs>
<clipPath id="clip0_12_110">
<rect width="24" height="24" fill="white" transform="translate(12 12)"/>
</clipPath>
</defs>
</svg>
