<svg width="24" height="25" viewBox="0 0 24 25" fill="none" xmlns="http://www.w3.org/2000/svg">
<path d="M12 15.2267C13.66 15.2267 15 13.9167 15 12.2567V5.23667C15 3.57667 13.66 2.22667 12 2.22667C10.34 2.22667 9 3.56667 9 5.23667V12.2567C9 13.9167 10.34 15.2267 12 15.2267Z" fill="#4285F4"/>
<path d="M11 18.3067H13V22.2267H11V18.3067Z" fill="#34A853"/>
<path d="M7.05 17.0967C5.78 15.7667 5 14.2667 5 12.2267H7C7 13.6767 7.56 14.6467 8.47 15.6067V15.9267L7.32 17.1067L7.05 17.0967Z" fill="#FBBC05"/>
<path d="M12 17.1567C11.3422 17.1586 10.6906 17.0226 10.0829 16.7566C9.47522 16.4905 8.9236 16.0996 8.46 15.6067L7.05 17.0967C8.31 18.4367 10.07 19.2267 12 19.2267C15.87 19.2267 18.99 16.3067 18.99 12.2267H17C17 15.1467 14.76 17.1567 12 17.1567Z" fill="#EA4335"/>
</svg>
