<svg width="20" height="21" viewBox="0 0 20 21" fill="none" xmlns="http://www.w3.org/2000/svg">
<g clip-path="url(#clip0_103_136)">
<path d="M12.9167 11.8933H12.2583L12.025 11.6683C13.025 10.5017 13.5417 8.91001 13.2583 7.21834C12.8667 4.90167 10.9333 3.05167 8.6 2.76834C5.075 2.33501 2.10834 5.30167 2.54167 8.82667C2.825 11.16 4.675 13.0933 6.99167 13.485C8.68334 13.7683 10.275 13.2517 11.4417 12.2517L11.6667 12.485V13.1433L15.2083 16.685C15.55 17.0267 16.1083 17.0267 16.45 16.685C16.7917 16.3433 16.7917 15.785 16.45 15.4433L12.9167 11.8933ZM7.91667 11.8933C5.84167 11.8933 4.16667 10.2183 4.16667 8.14334C4.16667 6.06834 5.84167 4.39334 7.91667 4.39334C9.99167 4.39334 11.6667 6.06834 11.6667 8.14334C11.6667 10.2183 9.99167 11.8933 7.91667 11.8933Z" fill="#9AA0A6"/>
</g>
<defs>
<clipPath id="clip0_103_136">
<rect width="20" height="20" fill="white" transform="translate(0 0.226669)"/>
</clipPath>
</defs>
</svg>
