<svg width="48" height="48" viewBox="0 0 48 48" fill="none" xmlns="http://www.w3.org/2000/svg">
<path d="M0 24C0 10.7452 10.7452 0 24 0C37.2548 0 48 10.7452 48 24C48 37.2548 37.2548 48 24 48C10.7452 48 0 37.2548 0 24Z" fill="white"/>
<path d="M23.9999 7C14.6113 7 7 14.6111 7 23.9997C7 33.3893 14.6113 41 23.9999 41C33.3889 41 41 33.3893 41 23.9997C41 14.6111 33.3889 7 23.9999 7" fill="#1ED760"/>
<path d="M31.4228 31.1502C31.1219 31.6437 30.4795 31.7982 29.9878 31.4975C26.056 29.0944 21.107 28.5518 15.2787 29.883C14.7171 30.0118 14.1573 29.6599 14.0293 29.0984C13.9005 28.5368 14.2512 27.977 14.8141 27.8488C21.1922 26.3908 26.6632 27.0182 31.0765 29.715C31.5685 30.0156 31.7235 30.6584 31.4228 31.1502" fill="white"/>
<path d="M33.4714 26.5911C33.0927 27.2055 32.2894 27.3983 31.6757 27.021C27.1763 24.2552 20.3147 23.4538 14.9913 25.0697C14.3011 25.2783 13.5719 24.8892 13.3621 24.2C13.1542 23.5098 13.5435 22.782 14.2327 22.5721C20.3139 20.7266 27.8739 21.6204 33.0419 24.7964C33.6556 25.1743 33.8487 25.9781 33.4714 26.5911" fill="white"/>
<path d="M33.6482 21.8437C28.251 18.6384 19.3484 18.3437 14.1961 19.9074C13.3685 20.1586 12.4936 19.6915 12.2431 18.8641C11.9923 18.0362 12.4588 17.1618 13.2868 16.9103C19.2014 15.115 29.0333 15.4617 35.2467 19.1501C35.9911 19.5919 36.235 20.553 35.7939 21.296C35.3525 22.0402 34.3906 22.2855 33.6482 21.8437" fill="white"/>
</svg>
