<svg width="48" height="48" viewBox="0 0 48 48" fill="none" xmlns="http://www.w3.org/2000/svg">
<path d="M0 24C0 10.7452 10.7452 0 24 0C37.2548 0 48 10.7452 48 24C48 37.2548 37.2548 48 24 48C10.7452 48 0 37.2548 0 24Z" fill="white"/>
<path d="M7 24C7 14.6112 14.6112 7 24 7C33.3888 7 41 14.6112 41 24C41 33.3888 33.3888 41 24 41C14.6112 41 7 33.3888 7 24Z" fill="#55ACEE"/>
<path d="M24.037 20.3991L24.0846 21.1957L23.2913 21.0982C20.4037 20.7243 17.881 19.4562 15.739 17.3266L14.6919 16.2699L14.4222 17.0503C13.851 18.7897 14.2159 20.6267 15.4059 21.8622C16.0405 22.545 15.8977 22.6425 14.8029 22.2361C14.4222 22.1061 14.089 22.0085 14.0572 22.0573C13.9462 22.1711 14.327 23.6504 14.6284 24.2357C15.0409 25.0485 15.8818 25.8451 16.8021 26.3165L17.5795 26.6904L16.6593 26.7067C15.7708 26.7067 15.7391 26.7229 15.8342 27.0643C16.1516 28.121 17.405 29.2427 18.8012 29.7304L19.7849 30.0718L18.9281 30.592C17.6588 31.3398 16.1674 31.7625 14.676 31.795C13.962 31.8112 13.375 31.8763 13.375 31.925C13.375 32.0876 15.3107 32.998 16.4372 33.3556C19.8166 34.4123 23.8308 33.9571 26.8453 32.1526C28.9872 30.8684 31.1292 28.3161 32.1287 25.8451C32.6682 24.5283 33.2076 22.1223 33.2076 20.9681C33.2076 20.2203 33.2552 20.1228 34.1437 19.2286C34.6673 18.7084 35.1592 18.1395 35.2544 17.9769C35.413 17.668 35.3972 17.668 34.588 17.9444C33.2394 18.4321 33.049 18.367 33.7153 17.6355C34.2072 17.1153 34.7942 16.1724 34.7942 15.896C34.7942 15.8473 34.5563 15.9286 34.2865 16.0749C34.0009 16.2374 33.3663 16.4813 32.8903 16.6276L32.0335 16.904L31.2561 16.3675C30.8277 16.0749 30.2248 15.7497 29.9075 15.6522C29.0983 15.4246 27.8608 15.4571 27.1309 15.7172C25.1477 16.4488 23.8942 18.3345 24.037 20.3991Z" fill="white"/>
</svg>
