<svg width="48" height="48" viewBox="0 0 48 48" fill="none" xmlns="http://www.w3.org/2000/svg">
<path d="M0 24C0 10.7452 10.7452 0 24 0C37.2548 0 48 10.7452 48 24C48 37.2548 37.2548 48 24 48C10.7452 48 0 37.2548 0 24Z" fill="white"/>
<path d="M7 24C7 14.6112 14.6112 7 24 7C33.3888 7 41 14.6112 41 24C41 33.3888 33.3888 41 24 41C14.6112 41 7 33.3888 7 24Z" fill="#FF0000"/>
<path d="M32.6877 19.8018C32.4792 19.0007 31.8647 18.3698 31.0845 18.1557C29.6705 17.7666 24 17.7666 24 17.7666C24 17.7666 18.3295 17.7666 16.9154 18.1557C16.1352 18.3698 15.5207 19.0007 15.3122 19.8018C14.9333 21.2538 14.9333 24.2833 14.9333 24.2833C14.9333 24.2833 14.9333 27.3127 15.3122 28.7647C15.5207 29.5659 16.1352 30.1967 16.9154 30.4109C18.3295 30.7999 24 30.7999 24 30.7999C24 30.7999 29.6705 30.7999 31.0845 30.4109C31.8647 30.1967 32.4792 29.5659 32.6877 28.7647C33.0667 27.3127 33.0667 24.2833 33.0667 24.2833C33.0667 24.2833 33.0667 21.2538 32.6877 19.8018" fill="white"/>
<path d="M22.3 27.4001V21.7334L26.8334 24.5668L22.3 27.4001Z" fill="#FF0000"/>
</svg>
